<?xml version="1.0" encoding="UTF-8"?> <svg xmlns="http://www.w3.org/2000/svg" width="705" height="227" viewBox="0 0 705 227" fill="none"> <path d="M213.027 128.211H218.321V18.056H213.027V128.211ZM207.508 133.731V12.384H223.84V12.5374V133.821H207.508V133.731ZM334.947 73.1171C334.943 70.1436 334.737 67.216 334.352 64.3467L322.916 73.1176L334.352 81.8895C334.737 79.0186 334.943 76.091 334.947 73.1171ZM333.375 87.3879L319.641 91.7332L327.339 103.843C330.039 98.7144 332.087 93.1931 333.375 87.3879ZM324.501 108.725L310.185 108.097L313.272 122.053C317.569 118.128 321.351 113.647 324.501 108.725ZM308.909 125.707L295.701 120.256L293.837 134.423C299.259 132.177 304.319 129.235 308.909 125.707ZM293.049 113.19L306.927 118.918L303.683 104.254C300.604 107.728 297.021 110.746 293.049 113.19ZM290.901 114.435C286.884 116.624 282.513 118.243 277.899 119.183L288.944 129.305L290.901 114.435ZM288.488 136.373L277.952 126.717L271.339 139.383C277.289 139.132 283.04 138.096 288.488 136.373ZM268.493 132.909L275.433 119.615C273.168 119.952 270.851 120.128 268.493 120.128H261.821L268.493 132.909ZM265.648 139.385L259.035 126.717L248.5 136.372C253.949 138.096 259.699 139.133 265.648 139.385ZM248.043 129.305L258.056 120.128H246.833L248.043 129.305ZM243.149 134.42L241.284 120.256L234.829 122.921V130.266C237.489 131.836 240.269 133.227 243.149 134.42ZM241.467 139.697C239.195 138.772 236.98 137.733 234.829 136.59V139.697H241.467ZM229.309 6.84802H202.037V139.511H229.309V6.84802ZM234.829 114.61H268.493C291.372 114.61 309.985 95.9962 309.985 73.1176C309.985 50.2387 291.372 31.6254 268.493 31.6254H234.829V38.268H268.493C287.709 38.268 303.343 53.9014 303.343 73.1176C303.343 92.3343 287.709 107.968 268.493 107.968H234.829V114.61ZM234.829 102.45H268.493C284.667 102.45 297.824 89.2904 297.824 73.1176C297.824 56.944 284.667 43.7867 268.493 43.7867H234.829V50.92H268.493C280.733 50.92 290.692 60.8773 290.692 73.1176C290.692 85.3576 280.733 95.316 268.493 95.316H234.829V102.45ZM234.829 89.7972H268.493C277.691 89.7972 285.173 82.315 285.173 73.1176C285.173 63.92 277.691 56.4374 268.493 56.4374H234.829V63.7667H268.493C273.649 63.7667 277.844 67.9613 277.844 73.1176C277.844 78.2738 273.649 82.4686 268.493 82.4686H234.829V89.7972ZM234.829 76.9504H268.493C270.607 76.9504 272.325 75.2306 272.325 73.1176C272.325 71.0051 270.607 69.2852 268.493 69.2852H234.829V76.9504ZM234.829 23.316L241.284 25.98L243.184 11.5507C240.291 12.748 237.5 14.1427 234.829 15.7187V23.316ZM234.829 9.39601C236.603 8.45335 238.42 7.58136 240.277 6.7867H234.829V9.39601ZM246.833 26.1067H258.056L248.043 16.9307L246.833 26.1067ZM248.297 9.6787L259.035 19.5187L265.681 6.7867H262.753C257.757 7.21602 252.919 8.20003 248.297 9.6787ZM268.493 13.3254L261.821 26.1067H268.493C270.851 26.1067 273.168 26.284 275.433 26.62L268.493 13.3254ZM271.339 6.85202L277.952 19.5187L288.489 9.86136C283.04 8.1387 277.289 7.10269 271.339 6.85202ZM288.944 16.9307L277.899 27.0534C282.513 27.9947 286.884 29.612 290.901 31.8L288.944 16.9307ZM293.049 33.0454C297.021 35.4894 300.604 38.5067 303.683 41.9813L306.925 27.316L293.049 33.0454ZM293.837 11.8134L295.701 25.98L308.911 20.528C304.32 17 299.259 14.0573 293.837 11.8134ZM310.184 38.1387L324.503 37.5094C321.352 32.5867 317.569 28.1067 313.272 24.18L310.184 38.1387ZM315.487 74.3754C315.361 79.1316 314.525 83.7139 313.081 88.0212L327.379 83.4962L315.487 74.3754ZM315.487 71.8603L327.379 62.74L313.081 58.2147C314.525 62.5213 315.361 67.104 315.487 71.8603ZM312.229 55.876L320.275 43.2187L305.277 43.8774C308.151 47.4854 310.507 51.5214 312.229 55.876ZM312.229 90.3598C310.507 94.7139 308.149 98.7504 305.277 102.357L320.275 103.016L312.229 90.3598ZM327.339 42.392L319.641 54.5027L333.375 58.848C332.087 53.0427 330.039 47.52 327.339 42.392ZM340.468 72.9926C340.468 73.0343 340.467 73.0754 340.467 73.1171C340.467 73.1587 340.468 73.1999 340.468 73.241C340.468 112.927 308.18 145.214 268.493 145.214H196.519V145.029V1.32935V1.26669H262.501C264.477 1.10269 266.476 1.01869 268.493 1.01869C308.18 1.01869 340.468 33.3067 340.468 72.9926ZM624.489 40.9374H619.019V133.839H602.687V40.9374H597.217V139.459H624.489V40.9374ZM608.205 128.319H613.5V40.9374H608.205V128.319ZM630.007 35.4187H665.931V40.9374H630.007V144.979H591.699V40.9374H555.775V35.4187H591.699H602.687H619.019H630.007ZM542.939 29.4747H678.767V23.956H542.939V29.4747ZM530.103 18.0107H691.604V12.492H530.103V18.0107ZM517.267 1.02934V6.54802H704.44V1.02934H517.267ZM436.859 92.9947L397.403 132.45L401.305 136.353L439.144 98.5134H467.476L505.315 136.353L509.217 132.45L469.761 92.9947H436.859ZM449.495 126.284L435.397 140.38L439.3 144.284L451.78 131.802H454.839L467.32 144.284L471.223 140.38L457.124 126.283L449.495 126.284ZM445.279 115.19L420.336 140.133L424.239 144.037L447.565 120.71H459.068L482.381 144.036L486.284 140.135L461.355 115.19H445.279ZM441.049 104.112L405.311 139.852L409.212 143.755L443.335 109.632H463.295L497.407 143.755L501.311 139.852L465.581 104.112H441.049ZM393.871 120.673L397.773 124.576L453.311 69.039L508.847 124.576L512.749 120.673L453.311 61.2347L393.871 120.673ZM386.024 113.211L389.927 117.115L453.311 53.7307L516.695 117.115L520.597 113.211L453.311 45.9254L386.024 113.211ZM374.391 109.535L378.293 113.438L453.311 38.4227L528.327 113.438L532.228 109.535L453.311 30.6174L374.391 109.535ZM374.26 94.3582L378.163 98.2608L453.311 23.1133L528.457 98.2608L532.36 94.3582L453.311 15.3094L374.26 94.3582ZM374.152 79.1576L378.055 83.0608L453.311 7.80403L528.565 83.0608L532.468 79.1576L453.311 1.52588e-05L374.152 79.1576ZM62.7063 92.9947L23.2505 132.45L27.1531 136.353L64.9921 98.5134H93.3235L131.163 136.353L135.065 132.45L95.6093 92.9947H62.7063ZM75.3421 126.284L61.2464 140.38L65.1484 144.284L77.6292 131.802H80.6869L93.1683 144.284L97.0703 140.38L82.9729 126.283L75.3421 126.284ZM71.1276 115.19L46.1844 140.133L50.0864 144.037L73.4136 120.71H84.9161L108.229 144.036L112.132 140.135L87.2027 115.19H71.1276ZM66.8973 104.112L31.1584 139.852L35.0604 143.755L69.1839 109.632H89.1432L123.256 143.755L127.159 139.852L91.4297 104.112H66.8973ZM19.7188 120.673L23.6208 124.576L79.1584 69.039L134.695 124.576L138.597 120.673L79.1584 61.2347L19.7188 120.673ZM11.8719 113.211L15.774 117.115L79.1584 53.7307L142.541 117.115L146.444 113.211L79.1584 45.9254L11.8719 113.211ZM0.239584 109.535L4.14115 113.438L79.1584 38.4227L154.175 113.438L158.077 109.535L79.1584 30.6174L0.239584 109.535ZM0.108333 94.3582L4.01041 98.2608L79.1584 23.1133L154.305 98.2608L158.208 94.3582L79.1584 15.3094L0.108333 94.3582ZM79.1584 1.52588e-05L158.316 79.1576L154.415 83.0608L79.1584 7.80403L3.9026 83.0608L0 79.1576L79.1584 1.52588e-05Z" fill="white"></path> <path d="M7.73703 207C7.1237 207 6.6837 206.747 6.41703 206.24C6.15036 205.733 6.1237 205.24 6.33703 204.76L18.097 176.84C18.3904 176.12 18.897 175.76 19.617 175.76C20.3104 175.76 20.8037 176.12 21.097 176.84L32.897 204.8C33.137 205.307 33.097 205.8 32.777 206.28C32.4837 206.76 32.057 207 31.497 207C30.777 207 30.2837 206.68 30.017 206.04L27.377 199.56H11.857L9.17703 206.04C9.0437 206.36 8.8437 206.6 8.57703 206.76C8.33703 206.92 8.05703 207 7.73703 207ZM12.977 196.88H26.257L19.617 180.84L12.977 196.88ZM38.742 207C38.262 207 37.8754 206.867 37.582 206.6C37.3154 206.307 37.182 205.92 37.182 205.44V186.64C37.2087 186.187 37.3554 185.827 37.622 185.56C37.9154 185.267 38.2887 185.12 38.742 185.12H38.782H48.542C50.382 185.12 51.8887 185.653 53.062 186.72C54.262 187.787 54.862 189.16 54.862 190.84C54.862 191.987 54.5954 192.947 54.062 193.72C53.5287 194.467 52.822 195.027 51.942 195.4C53.142 195.853 54.0887 196.56 54.782 197.52C55.4754 198.453 55.822 199.533 55.822 200.76C55.822 201.987 55.5154 203.067 54.902 204C54.3154 204.933 53.4754 205.667 52.382 206.2C51.3154 206.733 50.0887 207 48.702 207H38.742ZM48.542 187.92H40.262V194.28H48.702C49.6354 194.28 50.3954 193.973 50.982 193.36C51.5687 192.747 51.862 191.96 51.862 191C51.862 190.147 51.542 189.427 50.902 188.84C50.2887 188.227 49.502 187.92 48.542 187.92ZM40.262 204.16H48.702C49.902 204.16 50.8887 203.853 51.662 203.24C52.4354 202.627 52.822 201.747 52.822 200.6C52.822 199.4 52.4354 198.493 51.662 197.88C50.8887 197.24 49.902 196.92 48.702 196.92H40.262V204.16ZM62.6092 207C62.1292 207 61.7426 206.867 61.4492 206.6C61.1826 206.307 61.0492 205.933 61.0492 205.48V186.68C61.0492 186.227 61.1826 185.853 61.4492 185.56C61.7426 185.267 62.1292 185.12 62.6092 185.12C63.0626 185.12 63.4226 185.267 63.6892 185.56C63.9826 185.853 64.1292 186.227 64.1292 186.68V187.56C64.8759 186.707 65.7559 186.053 66.7692 185.6C67.7826 185.12 68.9026 184.88 70.1292 184.88C71.6226 184.88 72.9426 185.213 74.0892 185.88C75.2626 186.547 76.1959 187.467 76.8892 188.64C77.6359 187.467 78.6359 186.547 79.8892 185.88C81.1426 185.213 82.5426 184.88 84.0892 184.88C85.6626 184.88 87.0492 185.253 88.2492 186C89.4759 186.747 90.4226 187.8 91.0892 189.16C91.7826 190.52 92.1292 192.12 92.1292 193.96V205.48C92.1292 205.933 91.9826 206.307 91.6892 206.6C91.4226 206.867 91.0626 207 90.6092 207C90.1559 207 89.7826 206.867 89.4892 206.6C89.1959 206.307 89.0492 205.933 89.0492 205.48V193.96C89.0492 192.067 88.5559 190.573 87.5692 189.48C86.5826 188.36 85.3159 187.8 83.7692 187.8C82.1159 187.8 80.7559 188.36 79.6892 189.48C78.6492 190.573 78.1426 192.04 78.1692 193.88V193.96V205.48C78.1692 205.933 78.0226 206.307 77.7292 206.6C77.4626 206.867 77.1026 207 76.6492 207C76.1959 207 75.8226 206.867 75.5292 206.6C75.2359 206.307 75.0892 205.933 75.0892 205.48V193.96C75.0892 192.067 74.5959 190.573 73.6092 189.48C72.6226 188.36 71.3559 187.8 69.8092 187.8C68.1559 187.8 66.7959 188.347 65.7292 189.44C64.6626 190.507 64.1292 191.907 64.1292 193.64V205.48C64.1292 205.933 63.9826 206.307 63.6892 206.6C63.4226 206.867 63.0626 207 62.6092 207ZM108.9 207.2C106.767 207.2 104.86 206.72 103.18 205.76C101.5 204.8 100.18 203.48 99.2198 201.8C98.2598 200.12 97.7798 198.213 97.7798 196.08C97.7798 193.92 98.2598 192 99.2198 190.32C100.18 188.64 101.5 187.32 103.18 186.36C104.86 185.4 106.767 184.92 108.9 184.92C111.033 184.92 112.927 185.4 114.58 186.36C116.26 187.32 117.58 188.64 118.54 190.32C119.5 192 119.993 193.92 120.02 196.08C120.02 198.213 119.527 200.12 118.54 201.8C117.58 203.48 116.26 204.8 114.58 205.76C112.927 206.72 111.033 207.2 108.9 207.2ZM108.9 204.4C110.447 204.4 111.833 204.04 113.06 203.32C114.287 202.6 115.247 201.613 115.94 200.36C116.633 199.107 116.98 197.68 116.98 196.08C116.98 194.48 116.633 193.053 115.94 191.8C115.247 190.52 114.287 189.52 113.06 188.8C111.833 188.08 110.447 187.72 108.9 187.72C107.353 187.72 105.967 188.08 104.74 188.8C103.513 189.52 102.54 190.52 101.82 191.8C101.127 193.053 100.78 194.48 100.78 196.08C100.78 197.68 101.127 199.107 101.82 200.36C102.54 201.613 103.513 202.6 104.74 203.32C105.967 204.04 107.353 204.4 108.9 204.4ZM127.57 216.36C127.09 216.36 126.703 216.213 126.41 215.92C126.143 215.653 126.01 215.28 126.01 214.8V195.92C126.037 193.84 126.53 191.973 127.49 190.32C128.477 188.64 129.797 187.32 131.45 186.36C133.13 185.4 135.01 184.92 137.09 184.92C139.223 184.92 141.13 185.413 142.81 186.4C144.49 187.36 145.81 188.68 146.77 190.36C147.757 192.04 148.25 193.947 148.25 196.08C148.25 198.187 147.77 200.08 146.81 201.76C145.877 203.44 144.597 204.773 142.97 205.76C141.343 206.72 139.503 207.2 137.45 207.2C135.663 207.2 134.037 206.827 132.57 206.08C131.13 205.307 129.97 204.293 129.09 203.04V214.8C129.09 215.28 128.943 215.653 128.65 215.92C128.383 216.213 128.023 216.36 127.57 216.36ZM137.09 204.4C138.637 204.4 140.023 204.04 141.25 203.32C142.477 202.6 143.437 201.613 144.13 200.36C144.85 199.08 145.21 197.653 145.21 196.08C145.21 194.48 144.85 193.053 144.13 191.8C143.437 190.547 142.477 189.56 141.25 188.84C140.023 188.093 138.637 187.72 137.09 187.72C135.57 187.72 134.197 188.093 132.97 188.84C131.743 189.56 130.783 190.547 130.09 191.8C129.397 193.053 129.05 194.48 129.05 196.08C129.05 197.653 129.397 199.08 130.09 200.36C130.783 201.613 131.743 202.6 132.97 203.32C134.197 204.04 135.57 204.4 137.09 204.4ZM164.051 207.2C161.945 207.2 160.065 206.72 158.411 205.76C156.785 204.773 155.491 203.44 154.531 201.76C153.598 200.08 153.131 198.187 153.131 196.08C153.131 193.947 153.585 192.04 154.491 190.36C155.398 188.68 156.638 187.36 158.211 186.4C159.785 185.413 161.598 184.92 163.651 184.92C166.985 184.92 169.691 186.2 171.771 188.76C172.065 189.08 172.171 189.427 172.091 189.8C172.011 190.147 171.785 190.453 171.411 190.72C171.118 190.933 170.785 191.013 170.411 190.96C170.065 190.88 169.758 190.68 169.491 190.36C167.945 188.6 165.998 187.72 163.651 187.72C162.158 187.72 160.838 188.08 159.691 188.8C158.571 189.52 157.691 190.507 157.051 191.76C156.438 193.013 156.131 194.453 156.131 196.08C156.131 197.68 156.465 199.107 157.131 200.36C157.798 201.613 158.731 202.6 159.931 203.32C161.131 204.04 162.505 204.4 164.051 204.4C166.185 204.4 167.905 203.827 169.211 202.68C169.531 202.413 169.865 202.267 170.211 202.24C170.558 202.213 170.878 202.32 171.171 202.56C171.491 202.853 171.665 203.187 171.691 203.56C171.745 203.933 171.625 204.253 171.331 204.52C169.385 206.307 166.958 207.2 164.051 207.2ZM179.6 207C179.146 207 178.786 206.867 178.52 206.6C178.253 206.307 178.12 205.933 178.12 205.48V186.68C178.12 186.2 178.253 185.827 178.52 185.56C178.786 185.267 179.146 185.12 179.6 185.12C180.08 185.12 180.453 185.267 180.72 185.56C181.013 185.827 181.16 186.2 181.16 186.68V194.6H184.72L192.6 185.6C192.866 185.307 193.2 185.147 193.6 185.12C194 185.093 194.346 185.2 194.64 185.44C194.96 185.733 195.133 186.067 195.16 186.44C195.186 186.787 195.066 187.12 194.8 187.44L187.28 195.92L195.2 204.64C195.466 204.933 195.6 205.267 195.6 205.64C195.6 205.987 195.44 206.307 195.12 206.6C194.853 206.867 194.493 207 194.04 207C193.613 207 193.266 206.853 193 206.56L184.68 197.4H181.16V205.48C181.16 205.933 181.013 206.307 180.72 206.6C180.453 206.867 180.08 207 179.6 207ZM210.1 207.24C208.207 207.24 206.514 206.853 205.02 206.08C203.527 205.28 202.34 204.12 201.46 202.6C200.607 201.08 200.18 199.227 200.18 197.04V186.64C200.18 186.213 200.327 185.853 200.62 185.56C200.914 185.267 201.274 185.12 201.7 185.12C202.154 185.12 202.527 185.267 202.82 185.56C203.114 185.853 203.26 186.213 203.26 186.64V197.04C203.26 199.493 203.94 201.32 205.3 202.52C206.66 203.72 208.367 204.32 210.42 204.32C211.727 204.32 212.9 204.067 213.94 203.56C215.007 203.053 215.847 202.36 216.46 201.48C217.074 200.6 217.38 199.6 217.38 198.48V186.64C217.38 186.187 217.514 185.827 217.78 185.56C218.074 185.267 218.447 185.12 218.9 185.12C219.354 185.12 219.727 185.267 220.02 185.56C220.314 185.827 220.46 186.187 220.46 186.64V205.44C220.46 205.92 220.314 206.307 220.02 206.6C219.727 206.867 219.354 207 218.9 207C218.447 207 218.074 206.867 217.78 206.6C217.514 206.307 217.38 205.92 217.38 205.44V204.08C216.5 205.067 215.434 205.84 214.18 206.4C212.927 206.96 211.567 207.24 210.1 207.24ZM237.571 207.2C235.411 207.2 233.491 206.733 231.811 205.8C230.157 204.84 228.851 203.52 227.891 201.84C226.957 200.16 226.491 198.24 226.491 196.08C226.491 193.893 226.931 191.973 227.811 190.32C228.717 188.64 229.957 187.32 231.531 186.36C233.104 185.4 234.917 184.92 236.971 184.92C238.997 184.92 240.757 185.387 242.251 186.32C243.771 187.227 244.944 188.493 245.771 190.12C246.597 191.747 247.011 193.6 247.011 195.68C247.011 196.107 246.877 196.453 246.611 196.72C246.344 196.96 245.997 197.08 245.571 197.08H229.411C229.571 198.52 230.011 199.8 230.731 200.92C231.451 202.013 232.397 202.88 233.571 203.52C234.744 204.133 236.077 204.44 237.571 204.44C238.531 204.44 239.491 204.28 240.451 203.96C241.437 203.613 242.224 203.187 242.811 202.68C243.104 202.44 243.437 202.32 243.811 202.32C244.184 202.293 244.504 202.387 244.771 202.6C245.117 202.92 245.291 203.267 245.291 203.64C245.317 204.013 245.171 204.333 244.851 204.6C243.971 205.347 242.851 205.973 241.491 206.48C240.131 206.96 238.824 207.2 237.571 207.2ZM236.971 187.68C234.917 187.68 233.224 188.32 231.891 189.6C230.557 190.853 229.757 192.493 229.491 194.52H244.131C243.917 192.493 243.171 190.853 241.891 189.6C240.637 188.32 238.997 187.68 236.971 187.68ZM265.5 207C265.02 207 264.633 206.867 264.34 206.6C264.073 206.307 263.94 205.933 263.94 205.48V186.68C263.94 186.227 264.073 185.853 264.34 185.56C264.633 185.267 265.02 185.12 265.5 185.12C265.953 185.12 266.313 185.267 266.58 185.56C266.873 185.853 267.02 186.227 267.02 186.68V187.56C267.767 186.707 268.647 186.053 269.66 185.6C270.673 185.12 271.793 184.88 273.02 184.88C274.513 184.88 275.833 185.213 276.98 185.88C278.153 186.547 279.087 187.467 279.78 188.64C280.527 187.467 281.527 186.547 282.78 185.88C284.033 185.213 285.433 184.88 286.98 184.88C288.553 184.88 289.94 185.253 291.14 186C292.367 186.747 293.313 187.8 293.98 189.16C294.673 190.52 295.02 192.12 295.02 193.96V205.48C295.02 205.933 294.873 206.307 294.58 206.6C294.313 206.867 293.953 207 293.5 207C293.047 207 292.673 206.867 292.38 206.6C292.087 206.307 291.94 205.933 291.94 205.48V193.96C291.94 192.067 291.447 190.573 290.46 189.48C289.473 188.36 288.207 187.8 286.66 187.8C285.007 187.8 283.647 188.36 282.58 189.48C281.54 190.573 281.033 192.04 281.06 193.88V193.96V205.48C281.06 205.933 280.913 206.307 280.62 206.6C280.353 206.867 279.993 207 279.54 207C279.087 207 278.713 206.867 278.42 206.6C278.127 206.307 277.98 205.933 277.98 205.48V193.96C277.98 192.067 277.487 190.573 276.5 189.48C275.513 188.36 274.247 187.8 272.7 187.8C271.047 187.8 269.687 188.347 268.62 189.44C267.553 190.507 267.02 191.907 267.02 193.64V205.48C267.02 205.933 266.873 206.307 266.58 206.6C266.313 206.867 265.953 207 265.5 207ZM300.46 216.56C299.313 216.587 298.166 216.267 297.02 215.6C296.593 215.333 296.326 214.987 296.22 214.56C296.086 214.16 296.166 213.773 296.46 213.4C296.726 213.053 297.046 212.867 297.42 212.84C297.82 212.84 298.233 212.947 298.66 213.16C298.953 213.347 299.246 213.48 299.54 213.56C299.833 213.64 300.166 213.68 300.54 213.68C302.38 213.627 303.966 212.053 305.3 208.96L306.82 205.48L297.94 187.16C297.753 186.76 297.726 186.387 297.86 186.04C297.993 185.693 298.26 185.427 298.66 185.24C299.513 184.84 300.153 185.067 300.58 185.92L308.3 202.08L315.26 185.96C315.42 185.56 315.686 185.293 316.06 185.16C316.46 185 316.86 185.013 317.26 185.2C317.633 185.36 317.873 185.627 317.98 186C318.113 186.373 318.086 186.773 317.9 187.2L307.9 210.16C307.046 212.08 305.966 213.627 304.66 214.8C303.38 215.973 301.98 216.56 300.46 216.56ZM324.562 216.36C324.082 216.36 323.696 216.213 323.402 215.92C323.136 215.653 323.002 215.28 323.002 214.8V195.92C323.029 193.84 323.522 191.973 324.482 190.32C325.469 188.64 326.789 187.32 328.442 186.36C330.122 185.4 332.002 184.92 334.082 184.92C336.216 184.92 338.122 185.413 339.802 186.4C341.482 187.36 342.802 188.68 343.762 190.36C344.749 192.04 345.242 193.947 345.242 196.08C345.242 198.187 344.762 200.08 343.802 201.76C342.869 203.44 341.589 204.773 339.962 205.76C338.336 206.72 336.496 207.2 334.442 207.2C332.656 207.2 331.029 206.827 329.562 206.08C328.122 205.307 326.962 204.293 326.082 203.04V214.8C326.082 215.28 325.936 215.653 325.642 215.92C325.376 216.213 325.016 216.36 324.562 216.36ZM334.082 204.4C335.629 204.4 337.016 204.04 338.242 203.32C339.469 202.6 340.429 201.613 341.122 200.36C341.842 199.08 342.202 197.653 342.202 196.08C342.202 194.48 341.842 193.053 341.122 191.8C340.429 190.547 339.469 189.56 338.242 188.84C337.016 188.093 335.629 187.72 334.082 187.72C332.562 187.72 331.189 188.093 329.962 188.84C328.736 189.56 327.776 190.547 327.082 191.8C326.389 193.053 326.042 194.48 326.042 196.08C326.042 197.653 326.389 199.08 327.082 200.36C327.776 201.613 328.736 202.6 329.962 203.32C331.189 204.04 332.562 204.4 334.082 204.4ZM360.124 207.4C358.39 207.4 356.857 207.053 355.524 206.36C354.217 205.667 353.177 204.707 352.404 203.48C351.657 202.253 351.284 200.84 351.284 199.24V186.64C351.31 186.187 351.457 185.827 351.724 185.56C352.017 185.267 352.39 185.12 352.844 185.12C353.297 185.12 353.657 185.267 353.924 185.56C354.217 185.827 354.364 186.2 354.364 186.68V192.36H360.284C361.884 192.36 363.297 192.667 364.524 193.28C365.777 193.867 366.75 194.72 367.444 195.84C368.137 196.933 368.484 198.24 368.484 199.76C368.484 201.307 368.124 202.653 367.404 203.8C366.71 204.947 365.724 205.84 364.444 206.48C363.19 207.093 361.75 207.4 360.124 207.4ZM373.484 207C373.03 207 372.657 206.867 372.364 206.6C372.097 206.307 371.964 205.92 371.964 205.44V186.68C371.964 186.2 372.097 185.827 372.364 185.56C372.657 185.267 373.03 185.12 373.484 185.12C373.964 185.12 374.337 185.267 374.604 185.56C374.897 185.827 375.044 186.2 375.044 186.68V205.44C375.044 205.92 374.897 206.307 374.604 206.6C374.337 206.867 373.964 207 373.484 207ZM360.124 204.56C361.67 204.56 362.95 204.16 363.964 203.36C364.977 202.56 365.484 201.36 365.484 199.76C365.484 198.16 364.99 196.973 364.004 196.2C363.044 195.427 361.804 195.04 360.284 195.04H354.364V199.24C354.364 200.787 354.897 202.067 355.964 203.08C357.057 204.067 358.444 204.56 360.124 204.56ZM395.539 207C395.059 207 394.672 206.867 394.379 206.6C394.112 206.307 393.979 205.933 393.979 205.48V186.68C393.979 186.2 394.112 185.827 394.379 185.56C394.672 185.267 395.059 185.12 395.539 185.12C395.992 185.12 396.352 185.267 396.619 185.56C396.912 185.827 397.059 186.2 397.059 186.68V188.04C397.912 187.053 398.966 186.28 400.219 185.72C401.499 185.16 402.872 184.88 404.339 184.88C406.232 184.88 407.926 185.28 409.419 186.08C410.912 186.853 412.086 188 412.939 189.52C413.819 191.04 414.259 192.893 414.259 195.08V205.48C414.259 205.907 414.112 206.267 413.819 206.56C413.526 206.853 413.166 207 412.739 207C412.286 207 411.912 206.853 411.619 206.56C411.326 206.267 411.179 205.907 411.179 205.48V195.08C411.179 192.6 410.486 190.773 409.099 189.6C407.739 188.4 406.046 187.8 404.019 187.8C402.712 187.8 401.526 188.053 400.459 188.56C399.419 189.067 398.592 189.76 397.979 190.64C397.366 191.52 397.059 192.52 397.059 193.64V205.48C397.059 205.933 396.912 206.307 396.619 206.6C396.352 206.867 395.992 207 395.539 207ZM431.009 207.2C428.876 207.2 426.969 206.72 425.289 205.76C423.609 204.8 422.289 203.48 421.329 201.8C420.369 200.12 419.889 198.213 419.889 196.08C419.889 193.92 420.369 192 421.329 190.32C422.289 188.64 423.609 187.32 425.289 186.36C426.969 185.4 428.876 184.92 431.009 184.92C433.143 184.92 435.036 185.4 436.689 186.36C438.369 187.32 439.689 188.64 440.649 190.32C441.609 192 442.103 193.92 442.129 196.08C442.129 198.213 441.636 200.12 440.649 201.8C439.689 203.48 438.369 204.8 436.689 205.76C435.036 206.72 433.143 207.2 431.009 207.2ZM431.009 204.4C432.556 204.4 433.943 204.04 435.169 203.32C436.396 202.6 437.356 201.613 438.049 200.36C438.743 199.107 439.089 197.68 439.089 196.08C439.089 194.48 438.743 193.053 438.049 191.8C437.356 190.52 436.396 189.52 435.169 188.8C433.943 188.08 432.556 187.72 431.009 187.72C429.463 187.72 428.076 188.08 426.849 188.8C425.623 189.52 424.649 190.52 423.929 191.8C423.236 193.053 422.889 194.48 422.889 196.08C422.889 197.68 423.236 199.107 423.929 200.36C424.649 201.613 425.623 202.6 426.849 203.32C428.076 204.04 429.463 204.4 431.009 204.4ZM458.798 213.84C458.318 213.84 457.932 213.693 457.638 213.4C457.372 213.133 457.238 212.76 457.238 212.28V205.64C457.238 205.16 457.372 204.787 457.638 204.52C457.932 204.227 458.318 204.08 458.798 204.08H460.158L471.398 176.84C471.718 176.12 472.212 175.76 472.878 175.76C473.598 175.76 474.105 176.12 474.398 176.84L485.638 204.08H487.118C487.598 204.08 487.972 204.227 488.238 204.52C488.532 204.787 488.678 205.16 488.678 205.64V212.28C488.678 212.76 488.532 213.133 488.238 213.4C487.972 213.693 487.598 213.84 487.118 213.84C486.638 213.84 486.252 213.693 485.958 213.4C485.692 213.133 485.558 212.76 485.558 212.28V207H460.358V212.28C460.358 212.76 460.212 213.133 459.918 213.4C459.652 213.693 459.278 213.84 458.798 213.84ZM463.358 204.08H482.518L472.878 180.52L463.358 204.08ZM502.916 207.2C500.862 207.2 499.022 206.72 497.396 205.76C495.769 204.773 494.476 203.44 493.516 201.76C492.582 200.08 492.116 198.187 492.116 196.08C492.116 193.947 492.596 192.04 493.556 190.36C494.542 188.68 495.876 187.36 497.556 186.4C499.236 185.413 501.129 184.92 503.236 184.92C505.342 184.92 507.222 185.413 508.876 186.4C510.556 187.36 511.876 188.68 512.836 190.36C513.822 192.04 514.329 193.947 514.356 196.08V205.48C514.356 205.933 514.209 206.307 513.916 206.6C513.622 206.867 513.249 207 512.796 207C512.342 207 511.969 206.867 511.676 206.6C511.382 206.307 511.236 205.933 511.236 205.48V203.04C510.329 204.32 509.156 205.333 507.716 206.08C506.276 206.827 504.676 207.2 502.916 207.2ZM503.236 204.4C504.782 204.4 506.156 204.04 507.356 203.32C508.582 202.6 509.542 201.613 510.236 200.36C510.956 199.08 511.316 197.653 511.316 196.08C511.316 194.48 510.956 193.053 510.236 191.8C509.542 190.547 508.582 189.56 507.356 188.84C506.156 188.093 504.782 187.72 503.236 187.72C501.716 187.72 500.342 188.093 499.116 188.84C497.889 189.56 496.916 190.547 496.196 191.8C495.476 193.053 495.116 194.48 495.116 196.08C495.116 197.653 495.476 199.08 496.196 200.36C496.916 201.613 497.889 202.6 499.116 203.32C500.342 204.04 501.716 204.4 503.236 204.4ZM527.026 207.2C525.453 207.2 524.039 206.96 522.786 206.48C521.533 206 520.533 205.32 519.786 204.44C519.066 203.56 518.706 202.52 518.706 201.32C518.706 199.8 519.333 198.493 520.586 197.4C521.866 196.307 523.986 195.44 526.946 194.8C528.733 194.4 529.959 193.893 530.626 193.28C531.319 192.64 531.666 191.84 531.666 190.88C531.666 189.947 531.266 189.187 530.466 188.6C529.666 187.987 528.559 187.68 527.146 187.68C524.826 187.68 523.013 188.427 521.706 189.92C521.413 190.24 521.079 190.44 520.706 190.52C520.333 190.6 520.013 190.56 519.746 190.4C519.319 190.16 519.066 189.853 518.986 189.48C518.906 189.08 518.999 188.72 519.266 188.4C520.039 187.36 521.093 186.52 522.426 185.88C523.759 185.24 525.319 184.92 527.106 184.92C529.319 184.92 531.133 185.44 532.546 186.48C533.959 187.52 534.666 189.027 534.666 191C534.666 192.387 534.133 193.627 533.066 194.72C531.999 195.787 530.226 196.6 527.746 197.16C525.479 197.667 523.919 198.24 523.066 198.88C522.213 199.52 521.786 200.32 521.786 201.28C521.813 203.36 523.533 204.4 526.946 204.4C528.279 204.4 529.466 204.24 530.506 203.92C531.573 203.6 532.453 203.04 533.146 202.24C533.413 201.947 533.733 201.76 534.106 201.68C534.479 201.573 534.853 201.667 535.226 201.96C535.573 202.253 535.759 202.587 535.786 202.96C535.813 203.333 535.679 203.68 535.386 204C534.479 204.987 533.253 205.773 531.706 206.36C530.159 206.92 528.599 207.2 527.026 207.2ZM550.93 207.2C548.77 207.2 546.85 206.733 545.17 205.8C543.517 204.84 542.21 203.52 541.25 201.84C540.317 200.16 539.85 198.24 539.85 196.08C539.85 193.893 540.29 191.973 541.17 190.32C542.077 188.64 543.317 187.32 544.89 186.36C546.463 185.4 548.277 184.92 550.33 184.92C552.357 184.92 554.117 185.387 555.61 186.32C557.13 187.227 558.303 188.493 559.13 190.12C559.957 191.747 560.37 193.6 560.37 195.68C560.37 196.107 560.237 196.453 559.97 196.72C559.703 196.96 559.357 197.08 558.93 197.08H542.77C542.93 198.52 543.37 199.8 544.09 200.92C544.81 202.013 545.757 202.88 546.93 203.52C548.103 204.133 549.437 204.44 550.93 204.44C551.89 204.44 552.85 204.28 553.81 203.96C554.797 203.613 555.583 203.187 556.17 202.68C556.463 202.44 556.797 202.32 557.17 202.32C557.543 202.293 557.863 202.387 558.13 202.6C558.477 202.92 558.65 203.267 558.65 203.64C558.677 204.013 558.53 204.333 558.21 204.6C557.33 205.347 556.21 205.973 554.85 206.48C553.49 206.96 552.183 207.2 550.93 207.2ZM550.33 187.68C548.277 187.68 546.583 188.32 545.25 189.6C543.917 190.853 543.117 192.493 542.85 194.52H557.49C557.277 192.493 556.53 190.853 555.25 189.6C553.997 188.32 552.357 187.68 550.33 187.68ZM574.559 207.2C572.453 207.2 570.573 206.72 568.919 205.76C567.293 204.773 565.999 203.44 565.039 201.76C564.106 200.08 563.639 198.187 563.639 196.08C563.639 193.947 564.093 192.04 564.999 190.36C565.906 188.68 567.146 187.36 568.719 186.4C570.293 185.413 572.106 184.92 574.159 184.92C577.493 184.92 580.199 186.2 582.279 188.76C582.573 189.08 582.679 189.427 582.599 189.8C582.519 190.147 582.293 190.453 581.919 190.72C581.626 190.933 581.293 191.013 580.919 190.96C580.573 190.88 580.266 190.68 579.999 190.36C578.453 188.6 576.506 187.72 574.159 187.72C572.666 187.72 571.346 188.08 570.199 188.8C569.079 189.52 568.199 190.507 567.559 191.76C566.946 193.013 566.639 194.453 566.639 196.08C566.639 197.68 566.973 199.107 567.639 200.36C568.306 201.613 569.239 202.6 570.439 203.32C571.639 204.04 573.013 204.4 574.559 204.4C576.693 204.4 578.413 203.827 579.719 202.68C580.039 202.413 580.373 202.267 580.719 202.24C581.066 202.213 581.386 202.32 581.679 202.56C581.999 202.853 582.173 203.187 582.199 203.56C582.253 203.933 582.133 204.253 581.839 204.52C579.893 206.307 577.466 207.2 574.559 207.2ZM590.187 207C589.707 207 589.321 206.867 589.027 206.6C588.761 206.307 588.627 205.933 588.627 205.48V186.68C588.627 186.227 588.761 185.853 589.027 185.56C589.321 185.267 589.707 185.12 590.187 185.12C590.641 185.12 591.001 185.267 591.267 185.56C591.561 185.853 591.707 186.227 591.707 186.68V187.56C592.454 186.707 593.334 186.053 594.347 185.6C595.361 185.12 596.481 184.88 597.707 184.88C599.201 184.88 600.521 185.213 601.667 185.88C602.841 186.547 603.774 187.467 604.467 188.64C605.214 187.467 606.214 186.547 607.467 185.88C608.721 185.213 610.121 184.88 611.667 184.88C613.241 184.88 614.627 185.253 615.827 186C617.054 186.747 618.001 187.8 618.667 189.16C619.361 190.52 619.707 192.12 619.707 193.96V205.48C619.707 205.933 619.561 206.307 619.267 206.6C619.001 206.867 618.641 207 618.187 207C617.734 207 617.361 206.867 617.067 206.6C616.774 206.307 616.627 205.933 616.627 205.48V193.96C616.627 192.067 616.134 190.573 615.147 189.48C614.161 188.36 612.894 187.8 611.347 187.8C609.694 187.8 608.334 188.36 607.267 189.48C606.227 190.573 605.721 192.04 605.747 193.88V193.96V205.48C605.747 205.933 605.601 206.307 605.307 206.6C605.041 206.867 604.681 207 604.227 207C603.774 207 603.401 206.867 603.107 206.6C602.814 206.307 602.667 205.933 602.667 205.48V193.96C602.667 192.067 602.174 190.573 601.187 189.48C600.201 188.36 598.934 187.8 597.387 187.8C595.734 187.8 594.374 188.347 593.307 189.44C592.241 190.507 591.707 191.907 591.707 193.64V205.48C591.707 205.933 591.561 206.307 591.267 206.6C591.001 206.867 590.641 207 590.187 207ZM636.158 207.2C634.105 207.2 632.265 206.72 630.638 205.76C629.011 204.773 627.718 203.44 626.758 201.76C625.825 200.08 625.358 198.187 625.358 196.08C625.358 193.947 625.838 192.04 626.798 190.36C627.785 188.68 629.118 187.36 630.798 186.4C632.478 185.413 634.371 184.92 636.478 184.92C638.585 184.92 640.465 185.413 642.118 186.4C643.798 187.36 645.118 188.68 646.078 190.36C647.065 192.04 647.571 193.947 647.598 196.08V205.48C647.598 205.933 647.451 206.307 647.158 206.6C646.865 206.867 646.491 207 646.038 207C645.585 207 645.211 206.867 644.918 206.6C644.625 206.307 644.478 205.933 644.478 205.48V203.04C643.571 204.32 642.398 205.333 640.958 206.08C639.518 206.827 637.918 207.2 636.158 207.2ZM636.478 204.4C638.025 204.4 639.398 204.04 640.598 203.32C641.825 202.6 642.785 201.613 643.478 200.36C644.198 199.08 644.558 197.653 644.558 196.08C644.558 194.48 644.198 193.053 643.478 191.8C642.785 190.547 641.825 189.56 640.598 188.84C639.398 188.093 638.025 187.72 636.478 187.72C634.958 187.72 633.585 188.093 632.358 188.84C631.131 189.56 630.158 190.547 629.438 191.8C628.718 193.053 628.358 194.48 628.358 196.08C628.358 197.653 628.718 199.08 629.438 200.36C630.158 201.613 631.131 202.6 632.358 203.32C633.585 204.04 634.958 204.4 636.478 204.4ZM655.108 207C654.655 207 654.282 206.867 653.988 206.6C653.722 206.307 653.588 205.92 653.588 205.44V186.68C653.588 186.2 653.722 185.827 653.988 185.56C654.282 185.267 654.655 185.12 655.108 185.12C655.562 185.12 655.922 185.267 656.188 185.56C656.482 185.827 656.628 186.2 656.628 186.68V194.6H670.748V186.68C670.748 186.2 670.895 185.827 671.188 185.56C671.482 185.267 671.855 185.12 672.308 185.12C672.762 185.12 673.122 185.267 673.388 185.56C673.655 185.827 673.788 186.2 673.788 186.68V205.44C673.788 205.92 673.655 206.307 673.388 206.6C673.122 206.867 672.762 207 672.308 207C671.855 207 671.482 206.867 671.188 206.6C670.895 206.307 670.748 205.92 670.748 205.44V197.36H656.628V205.44C656.628 205.92 656.482 206.307 656.188 206.6C655.922 206.867 655.562 207 655.108 207ZM679.6 216.56C678.453 216.587 677.307 216.267 676.16 215.6C675.733 215.333 675.467 214.987 675.36 214.56C675.227 214.16 675.307 213.773 675.6 213.4C675.867 213.053 676.187 212.867 676.56 212.84C676.96 212.84 677.373 212.947 677.8 213.16C678.093 213.347 678.387 213.48 678.68 213.56C678.973 213.64 679.307 213.68 679.68 213.68C681.52 213.627 683.107 212.053 684.44 208.96L685.96 205.48L677.08 187.16C676.893 186.76 676.867 186.387 677 186.04C677.133 185.693 677.4 185.427 677.8 185.24C678.653 184.84 679.293 185.067 679.72 185.92L687.44 202.08L694.4 185.96C694.56 185.56 694.827 185.293 695.2 185.16C695.6 185 696 185.013 696.4 185.2C696.773 185.36 697.013 185.627 697.12 186C697.253 186.373 697.227 186.773 697.04 187.2L687.04 210.16C686.187 212.08 685.107 213.627 683.8 214.8C682.52 215.973 681.12 216.56 679.6 216.56Z" fill="white"></path> </svg> 