<svg width="808" height="566" viewBox="0 0 808 566" fill="none" xmlns="http://www.w3.org/2000/svg">
<g clip-path="url(#clip0_2_2)">
<path d="M634.24 52.4011C672.362 -20.0813 789.784 41.6777 751.661 114.16L614.419 375.097C575.534 449.029 458.112 387.27 496.997 313.338L634.24 52.4011Z" fill="#CA2F47"/>
<path d="M410.491 48.5348C448.614 -23.9476 566.036 37.8114 527.913 110.294L390.671 371.23C351.786 445.163 234.364 383.404 273.249 309.471L410.491 48.5348Z" fill="#4472C4"/>
<path d="M181.406 54.816C219.529 -17.6664 336.95 44.0926 298.828 116.575L161.585 377.512C122.7 451.444 5.27867 389.685 44.164 315.753L181.406 54.816Z" fill="#35A163"/>
<path d="M142.89 530C142.143 530 141.49 529.743 140.93 529.23C140.417 528.67 140.16 528.017 140.16 527.27V475.33H145.62V527.27C145.62 528.017 145.363 528.67 144.85 529.23C144.337 529.743 143.683 530 142.89 530ZM123.57 480.3C122.823 480.3 122.217 480.067 121.75 479.6C121.283 479.133 121.05 478.55 121.05 477.85C121.05 477.103 121.283 476.497 121.75 476.03C122.217 475.563 122.823 475.33 123.57 475.33H162.28C163.027 475.33 163.633 475.563 164.1 476.03C164.567 476.497 164.8 477.103 164.8 477.85C164.8 478.55 164.567 479.133 164.1 479.6C163.633 480.067 163.027 480.3 162.28 480.3H123.57ZM179.239 530.56C177.092 530.56 175.016 529.86 173.009 528.46C172.309 527.993 171.912 527.433 171.819 526.78C171.726 526.08 171.936 525.427 172.449 524.82C172.916 524.167 173.476 523.817 174.129 523.77C174.829 523.677 175.529 523.863 176.229 524.33C176.742 524.657 177.232 524.913 177.699 525.1C178.212 525.24 178.772 525.31 179.379 525.31C180.779 525.31 182.202 524.68 183.649 523.42C185.096 522.16 186.356 520.363 187.429 518.03L206.749 477.01C207.496 475.423 208.662 474.98 210.249 475.68C211.789 476.38 212.186 477.523 211.439 479.11L192.119 520.2C190.579 523.513 188.689 526.08 186.449 527.9C184.209 529.673 181.806 530.56 179.239 530.56ZM189.599 518.94L166.219 479.39C165.332 477.85 165.682 476.66 167.269 475.82C168.762 474.933 169.952 475.26 170.839 476.8L193.309 516.21L189.599 518.94ZM224.75 530C223.956 530 223.303 529.743 222.79 529.23C222.276 528.717 222.02 528.063 222.02 527.27V478.06C222.02 477.267 222.276 476.613 222.79 476.1C223.303 475.587 223.956 475.33 224.75 475.33H238.75C242.203 475.33 245.26 476.1 247.92 477.64C250.58 479.133 252.656 481.21 254.15 483.87C255.643 486.53 256.39 489.61 256.39 493.11C256.39 496.517 255.643 499.55 254.15 502.21C252.656 504.823 250.58 506.9 247.92 508.44C245.26 509.933 242.203 510.68 238.75 510.68H227.48V527.27C227.48 528.063 227.223 528.717 226.71 529.23C226.196 529.743 225.543 530 224.75 530ZM227.48 505.43H238.75C241.13 505.43 243.253 504.917 245.12 503.89C246.986 502.817 248.433 501.347 249.46 499.48C250.533 497.613 251.07 495.49 251.07 493.11C251.07 490.637 250.533 488.467 249.46 486.6C248.433 484.733 246.986 483.263 245.12 482.19C243.253 481.117 241.13 480.58 238.75 480.58H227.48V505.43ZM263.201 513.55C262.454 513.55 261.824 513.293 261.311 512.78C260.798 512.267 260.541 511.637 260.541 510.89C260.541 510.097 260.798 509.443 261.311 508.93C261.824 508.417 262.454 508.16 263.201 508.16H279.651C280.444 508.16 281.098 508.417 281.611 508.93C282.124 509.443 282.381 510.097 282.381 510.89C282.381 511.637 282.124 512.267 281.611 512.78C281.098 513.293 280.444 513.55 279.651 513.55H263.201ZM295.305 530C294.418 530 293.671 529.767 293.065 529.3C292.505 528.787 292.225 528.11 292.225 527.27V478.06C292.225 477.267 292.481 476.613 292.995 476.1C293.508 475.587 294.161 475.33 294.955 475.33H324.775C325.475 475.33 326.058 475.587 326.525 476.1C327.038 476.567 327.295 477.197 327.295 477.99C327.295 478.783 327.038 479.413 326.525 479.88C326.058 480.347 325.475 480.58 324.775 480.58H297.685V497.73H314.975C318.241 497.73 321.135 498.43 323.655 499.83C326.221 501.183 328.228 503.073 329.675 505.5C331.121 507.88 331.845 510.633 331.845 513.76C331.845 516.933 331.121 519.757 329.675 522.23C328.228 524.657 326.221 526.57 323.655 527.97C321.135 529.323 318.241 530 314.975 530H295.305ZM297.685 524.75H314.975C317.215 524.75 319.198 524.283 320.925 523.35C322.651 522.417 324.005 521.11 324.985 519.43C325.965 517.75 326.455 515.79 326.455 513.55C326.455 511.31 325.965 509.373 324.985 507.74C324.005 506.06 322.651 504.777 320.925 503.89C319.198 503.003 317.215 502.56 314.975 502.56H297.685V524.75ZM345.474 530C344.727 530 344.074 529.743 343.514 529.23C342.954 528.717 342.674 528.063 342.674 527.27V478.06C342.674 477.267 342.954 476.613 343.514 476.1C344.074 475.587 344.727 475.33 345.474 475.33C346.267 475.33 346.897 475.587 347.364 476.1C347.877 476.613 348.134 477.267 348.134 478.06V521.04L383.064 476.31C383.577 475.657 384.277 475.33 385.164 475.33C385.957 475.33 386.61 475.587 387.124 476.1C387.637 476.613 387.894 477.267 387.894 478.06V527.27C387.894 528.063 387.637 528.717 387.124 529.23C386.61 529.743 385.957 530 385.164 530C384.37 530 383.717 529.743 383.204 529.23C382.69 528.717 382.434 528.063 382.434 527.27V484.36L347.504 529.09C347.27 529.37 346.967 529.603 346.594 529.79C346.22 529.93 345.847 530 345.474 530ZM416.713 530.7C414.333 530.7 412 530.42 409.713 529.86C407.473 529.253 405.42 528.413 403.553 527.34C401.686 526.22 400.193 524.89 399.073 523.35C398.793 522.743 398.676 522.113 398.723 521.46C398.77 520.76 399.073 520.177 399.633 519.71C400.193 519.29 400.8 519.127 401.453 519.22C402.153 519.313 402.736 519.663 403.203 520.27C404.743 521.903 406.68 523.21 409.013 524.19C411.346 525.123 413.913 525.59 416.713 525.59C419.28 525.59 421.543 525.147 423.503 524.26C425.463 523.373 427.003 522.09 428.123 520.41C429.29 518.73 429.873 516.723 429.873 514.39C429.873 510.937 428.823 508.253 426.723 506.34C424.67 504.427 422.01 503.47 418.743 503.47H414.403C413.656 503.47 413.05 503.26 412.583 502.84C412.116 502.373 411.883 501.79 411.883 501.09C411.883 500.343 412.116 499.76 412.583 499.34C413.05 498.873 413.633 498.64 414.333 498.64H418.253C420.913 498.64 423.106 497.777 424.833 496.05C426.606 494.323 427.493 491.92 427.493 488.84C427.493 485.807 426.443 483.543 424.343 482.05C422.243 480.51 419.536 479.74 416.223 479.74C413.75 479.74 411.51 480.207 409.503 481.14C407.496 482.073 405.863 483.38 404.603 485.06C404.09 485.76 403.483 486.203 402.783 486.39C402.13 486.577 401.476 486.46 400.823 486.04C400.216 485.667 399.82 485.153 399.633 484.5C399.493 483.8 399.656 483.147 400.123 482.54C401.85 480.253 404.02 478.387 406.633 476.94C409.293 475.447 412.49 474.7 416.223 474.7C419.49 474.7 422.36 475.307 424.833 476.52C427.353 477.687 429.313 479.32 430.713 481.42C432.16 483.52 432.883 485.9 432.883 488.56C432.883 490.427 432.51 492.153 431.763 493.74C431.063 495.28 430.106 496.633 428.893 497.8C427.726 498.967 426.396 499.877 424.903 500.53C423.456 501.183 422.01 501.557 420.563 501.65V499.97C422.29 500.063 424.016 500.46 425.743 501.16C427.47 501.813 429.033 502.77 430.433 504.03C431.88 505.243 433.023 506.737 433.863 508.51C434.75 510.237 435.193 512.243 435.193 514.53C435.193 517.657 434.4 520.433 432.813 522.86C431.226 525.287 429.033 527.2 426.233 528.6C423.48 530 420.306 530.7 416.713 530.7ZM449.173 530C448.38 530 447.727 529.743 447.213 529.23C446.7 528.717 446.443 528.063 446.443 527.27V478.06C446.443 477.267 446.7 476.613 447.213 476.1C447.727 475.587 448.38 475.33 449.173 475.33C449.967 475.33 450.62 475.587 451.133 476.1C451.647 476.613 451.903 477.267 451.903 478.06V499.9H486.063V478.06C486.063 477.267 486.32 476.613 486.833 476.1C487.347 475.587 488 475.33 488.793 475.33C489.587 475.33 490.24 475.587 490.753 476.1C491.267 476.613 491.523 477.267 491.523 478.06V527.27C491.523 528.063 491.267 528.717 490.753 529.23C490.24 529.743 489.587 530 488.793 530C488 530 487.347 529.743 486.833 529.23C486.32 528.717 486.063 528.063 486.063 527.27V504.8H451.903V527.27C451.903 528.063 451.647 528.717 451.133 529.23C450.62 529.743 449.967 530 449.173 530ZM508.236 530C507.443 530 506.789 529.743 506.276 529.23C505.763 528.717 505.506 528.063 505.506 527.27V478.06C505.506 477.267 505.763 476.613 506.276 476.1C506.789 475.587 507.443 475.33 508.236 475.33H541.066C541.813 475.33 542.443 475.587 542.956 476.1C543.516 476.567 543.796 477.197 543.796 477.99C543.796 478.69 543.516 479.297 542.956 479.81C542.443 480.323 541.813 480.58 541.066 480.58H510.966V499.9H532.876C533.669 499.9 534.323 500.157 534.836 500.67C535.349 501.183 535.606 501.813 535.606 502.56C535.606 503.307 535.349 503.937 534.836 504.45C534.323 504.963 533.669 505.22 532.876 505.22H510.966V524.75H541.066C541.813 524.75 542.443 525.007 542.956 525.52C543.516 526.033 543.796 526.64 543.796 527.34C543.796 528.133 543.516 528.787 542.956 529.3C542.443 529.767 541.813 530 541.066 530H508.236ZM578.543 530.7C574.763 530.7 571.216 529.977 567.903 528.53C564.636 527.083 561.743 525.077 559.223 522.51C556.749 519.897 554.813 516.91 553.413 513.55C552.013 510.143 551.313 506.503 551.313 502.63C551.313 498.803 551.989 495.21 553.343 491.85C554.743 488.443 556.679 485.457 559.153 482.89C561.673 480.323 564.566 478.317 567.833 476.87C571.146 475.377 574.716 474.63 578.543 474.63C581.903 474.63 584.959 475.12 587.713 476.1C590.466 477.08 593.126 478.643 595.693 480.79C596.113 481.117 596.346 481.513 596.393 481.98C596.486 482.4 596.439 482.82 596.253 483.24C596.066 483.613 595.786 483.893 595.413 484.08C595.319 484.453 595.086 484.733 594.713 484.92C594.339 485.107 593.896 485.177 593.383 485.13C592.916 485.083 592.449 484.873 591.983 484.5C590.163 482.913 588.179 481.747 586.033 481C583.886 480.207 581.389 479.81 578.543 479.81C575.509 479.81 572.663 480.417 570.003 481.63C567.389 482.843 565.079 484.5 563.073 486.6C561.066 488.7 559.479 491.127 558.313 493.88C557.193 496.633 556.633 499.55 556.633 502.63C556.633 505.803 557.193 508.767 558.313 511.52C559.479 514.273 561.066 516.7 563.073 518.8C565.079 520.9 567.389 522.557 570.003 523.77C572.663 524.937 575.509 525.52 578.543 525.52C581.109 525.52 583.536 525.1 585.823 524.26C588.109 523.42 590.279 522.207 592.333 520.62C592.893 520.153 593.476 519.967 594.083 520.06C594.736 520.153 595.296 520.433 595.763 520.9C596.229 521.367 596.463 521.973 596.463 522.72C596.463 523.093 596.393 523.443 596.253 523.77C596.159 524.05 595.973 524.353 595.693 524.68C593.313 526.873 590.653 528.437 587.713 529.37C584.773 530.257 581.716 530.7 578.543 530.7ZM608.263 531.12C607.143 531.12 606.186 530.723 605.393 529.93C604.6 529.137 604.203 528.18 604.203 527.06C604.203 525.893 604.6 524.913 605.393 524.12C606.233 523.327 607.19 522.93 608.263 522.93C609.383 522.93 610.34 523.35 611.133 524.19C611.926 524.983 612.323 525.94 612.323 527.06C612.323 528.133 611.926 529.09 611.133 529.93C610.386 530.723 609.43 531.12 608.263 531.12ZM625.541 530C624.747 530 624.094 529.743 623.581 529.23C623.067 528.717 622.811 528.063 622.811 527.27V478.06C622.811 477.267 623.067 476.613 623.581 476.1C624.094 475.587 624.747 475.33 625.541 475.33H639.541C642.994 475.33 646.051 476.1 648.711 477.64C651.371 479.133 653.447 481.21 654.941 483.87C656.434 486.53 657.181 489.61 657.181 493.11C657.181 496.517 656.434 499.55 654.941 502.21C653.447 504.823 651.371 506.9 648.711 508.44C646.051 509.933 642.994 510.68 639.541 510.68H628.271V527.27C628.271 528.063 628.014 528.717 627.501 529.23C626.987 529.743 626.334 530 625.541 530ZM628.271 505.43H639.541C641.921 505.43 644.044 504.917 645.911 503.89C647.777 502.817 649.224 501.347 650.251 499.48C651.324 497.613 651.861 495.49 651.861 493.11C651.861 490.637 651.324 488.467 650.251 486.6C649.224 484.733 647.777 483.263 645.911 482.19C644.044 481.117 641.921 480.58 639.541 480.58H628.271V505.43ZM688.702 524.12C685.015 524.12 681.585 523.583 678.412 522.51C675.285 521.437 672.555 519.943 670.222 518.03C667.935 516.117 666.162 513.853 664.902 511.24C663.642 508.58 663.012 505.71 663.012 502.63C663.012 499.55 663.642 496.703 664.902 494.09C666.162 491.477 667.935 489.213 670.222 487.3C672.555 485.387 675.285 483.893 678.412 482.82C681.585 481.747 685.015 481.21 688.702 481.21C692.482 481.21 695.959 481.747 699.132 482.82C702.305 483.893 705.059 485.387 707.392 487.3C709.772 489.213 711.592 491.477 712.852 494.09C714.159 496.703 714.812 499.55 714.812 502.63C714.812 505.71 714.159 508.58 712.852 511.24C711.592 513.853 709.772 516.117 707.392 518.03C705.059 519.943 702.305 521.437 699.132 522.51C695.959 523.583 692.482 524.12 688.702 524.12ZM688.702 519.22C692.669 519.22 696.215 518.52 699.342 517.12C702.469 515.673 704.942 513.713 706.762 511.24C708.582 508.72 709.492 505.85 709.492 502.63C709.492 499.41 708.582 496.563 706.762 494.09C704.942 491.617 702.469 489.68 699.342 488.28C696.215 486.833 692.669 486.11 688.702 486.11C684.829 486.11 681.352 486.833 678.272 488.28C675.192 489.68 672.765 491.617 670.992 494.09C669.219 496.563 668.332 499.41 668.332 502.63C668.332 505.85 669.219 508.72 670.992 511.24C672.765 513.713 675.192 515.673 678.272 517.12C681.352 518.52 684.829 519.22 688.702 519.22ZM688.562 530C687.769 530 687.115 529.743 686.602 529.23C686.089 528.717 685.832 528.063 685.832 527.27V522.51L686.042 520.2V484.71L685.832 482.82V478.06C685.832 477.267 686.089 476.613 686.602 476.1C687.115 475.587 687.769 475.33 688.562 475.33C689.355 475.33 690.009 475.587 690.522 476.1C691.035 476.613 691.292 477.267 691.292 478.06V482.75L691.082 484.64V520.48L691.292 522.3V527.27C691.292 528.063 691.035 528.717 690.522 529.23C690.009 529.743 689.355 530 688.562 530Z" fill="white"/>
<path d="M65 460H749" stroke="white" stroke-width="4" stroke-linecap="round"/>
<path d="M65 546H749" stroke="white" stroke-width="4" stroke-linecap="round"/>
</g>
<defs>
<clipPath id="clip0_2_2">
<rect width="808" height="566" fill="white"/>
</clipPath>
</defs>
</svg>
